# xmcd
#
# Track frame offsets: 
#        150
#        24197
#        40752
#        55217
#        71416
#        100262
#        133940
#        159281
#        191150
#        225767
#        257835
#
# Disc length: 3731 seconds
#
# Revision: 0
# Processed by: cddbd v1.5.2PL0 Copyright (c) Steve Scherf et al.
# Submitted via: ExactAudioCopy v1.0b3
#
DISCID=870e910b
DTITLE=Various Artist - The Best In Trance Vol. 4 - CD 1
DYEAR=1900
DGENRE=
TTITLE0=Dyce - Tomorrow Can Wait (Cascada Extended Mix)
TTITLE1=Kyau Vs. Albert - 7Skies (Album Radio Mix)
TTITLE2=Above and Beyond - Good For Me (Radio Version)
TTITLE3=Alex M.O.R.P.H. and Woody Van Eyden Feat. Kate Peters - Heavenly
TTITLE3=(Radio Edit)
TTITLE4=Sunny Inc. Feat. Yael Peles - Loving U (Extended Mix)
TTITLE5=Pavex Feat. Danny Marx Young - Solid Skies (Original Mix)
TTITLE6=Jan Wayne and Scarlet - I Touch Myself (Handz Up Club Mix)
TTITLE7=Visior and Dark Moon - Beautiful People (Sunrise Mix)
TTITLE8=Airwave Feat. Jon O'Bir - The Promise I Made (Vocal Mix)
TTITLE9=Amey Vs. Saint Rush - Distant Worlds (Carl B Remix)
TTITLE10=Kindervater Feat. Nadja - Forever (Original Mix)
EXTD=
EXTT0=
EXTT1=
EXTT2=
EXTT3=
EXTT4=
EXTT5=
EXTT6=
EXTT7=
EXTT8=
EXTT9=
EXTT10=
PLAYORDER=
